{"glyphs":{"0":{"ha":1587,"x_min":0,"x_max":1389,"o":"m 397 0 l 397 198 l 198 198 l 198 397 l 0 397 l 0 991 l 198 991 l 198 1190 l 397 1190 l 397 397 l 595 397 l 595 198 l 991 198 l 991 0 l 397 0 m 991 198 l 991 991 l 793 991 l 793 1190 l 397 1190 l 397 1389 l 991 1389 l 991 1190 l 1190 1190 l 1190 991 l 1389 991 l 1389 397 l 1190 397 l 1190 198 l 991 198 z "},"1":{"ha":1587,"x_min":198,"x_max":1389,"o":"m 198 0 l 198 198 l 595 198 l 595 991 l 397 991 l 397 1190 l 595 1190 l 595 1389 l 991 1389 l 991 198 l 1389 198 l 1389 0 l 198 0 z "},"2":{"ha":1587,"x_min":0,"x_max":1389,"o":"m 0 0 l 0 397 l 198 397 l 198 595 l 397 595 l 397 793 l 793 793 l 793 991 l 991 991 l 991 1190 l 397 1190 l 397 991 l 0 991 l 0 1190 l 198 1190 l 198 1389 l 1190 1389 l 1190 1190 l 1389 1190 l 1389 793 l 1190 793 l 1190 595 l 991 595 l 991 397 l 595 397 l 595 198 l 1389 198 l 1389 0 l 0 0 z "},"3":{"ha":1587,"x_min":0,"x_max":1389,"o":"m 198 0 l 198 198 l 0 198 l 0 397 l 397 397 l 397 198 l 991 198 l 991 595 l 397 595 l 397 793 l 595 793 l 595 991 l 793 991 l 793 1190 l 198 1190 l 198 1389 l 1389 1389 l 1389 1190 l 1190 1190 l 1190 991 l 991 991 l 991 793 l 1190 793 l 1190 595 l 1389 595 l 1389 198 l 1190 198 l 1190 0 l 198 0 z "},"4":{"ha":1587,"x_min":0,"x_max":1389,"o":"m 793 595 l 793 991 l 595 991 l 595 793 l 397 793 l 397 595 l 793 595 m 793 0 l 793 397 l 0 397 l 0 793 l 198 793 l 198 991 l 397 991 l 397 1190 l 595 1190 l 595 1389 l 1190 1389 l 1190 595 l 1389 595 l 1389 397 l 1190 397 l 1190 0 l 793 0 z "},"5":{"ha":1587,"x_min":0,"x_max":1389,"o":"m 198 0 l 198 198 l 0 198 l 0 397 l 397 397 l 397 198 l 991 198 l 991 793 l 0 793 l 0 1389 l 1190 1389 l 1190 1190 l 397 1190 l 397 991 l 1190 991 l 1190 793 l 1389 793 l 1389 198 l 1190 198 l 1190 0 l 198 0 z "},"6":{"ha":1587,"x_min":0,"x_max":1389,"o":"m 991 198 l 991 595 l 397 595 l 397 198 l 991 198 m 198 0 l 198 198 l 0 198 l 0 991 l 198 991 l 198 1190 l 397 1190 l 397 1389 l 1190 1389 l 1190 1190 l 595 1190 l 595 991 l 397 991 l 397 793 l 1190 793 l 1190 595 l 1389 595 l 1389 198 l 1190 198 l 1190 0 l 198 0 z "},"7":{"ha":1587,"x_min":0,"x_max":1389,"o":"m 397 0 l 397 595 l 595 595 l 595 793 l 793 793 l 793 991 l 991 991 l 991 1190 l 397 1190 l 397 991 l 0 991 l 0 1389 l 1389 1389 l 1389 991 l 1190 991 l 1190 793 l 991 793 l 991 595 l 793 595 l 793 0 l 397 0 z "},"8":{"ha":1587,"x_min":0,"x_max":1389,"o":"m 0 198 l 0 595 l 198 595 l 198 198 l 0 198 m 991 793 l 991 1190 l 1190 1190 l 1190 793 l 991 793 m 198 0 l 198 198 l 991 198 l 991 397 l 595 397 l 595 595 l 198 595 l 198 793 l 0 793 l 0 1190 l 198 1190 l 198 1389 l 991 1389 l 991 1190 l 397 1190 l 397 991 l 595 991 l 595 793 l 991 793 l 991 595 l 1389 595 l 1389 198 l 1190 198 l 1190 0 l 198 0 z "},"9":{"ha":1587,"x_min":0,"x_max":1389,"o":"m 991 793 l 991 1190 l 397 1190 l 397 793 l 991 793 m 198 0 l 198 198 l 793 198 l 793 397 l 991 397 l 991 595 l 198 595 l 198 793 l 0 793 l 0 1190 l 198 1190 l 198 1389 l 1190 1389 l 1190 1190 l 1389 1190 l 1389 397 l 1190 397 l 1190 198 l 991 198 l 991 0 l 198 0 z "}," ":{"ha":1587,"x_min":0,"x_max":0,"o":""},"!":{"ha":1587,"x_min":198,"x_max":1190,"o":"m 198 0 l 198 198 l 397 198 l 397 0 l 198 0 m 397 397 l 397 991 l 595 991 l 595 1389 l 1190 1389 l 1190 991 l 991 991 l 991 793 l 793 793 l 793 595 l 595 595 l 595 397 l 397 397 z "},"\"":{"ha":1587,"x_min":198,"x_max":1190,"o":"m 397 595 l 397 793 l 198 793 l 198 1389 l 595 1389 l 595 595 l 397 595 m 793 595 l 793 1389 l 1190 1389 l 1190 793 l 991 793 l 991 595 l 793 595 z "},"#":{"ha":1587,"x_min":198,"x_max":1190,"o":"m 793 595 l 793 793 l 595 793 l 595 595 l 793 595 m 397 198 l 397 397 l 198 397 l 198 595 l 397 595 l 397 793 l 198 793 l 198 991 l 397 991 l 397 1190 l 595 1190 l 595 991 l 793 991 l 793 1190 l 991 1190 l 991 991 l 1190 991 l 1190 793 l 991 793 l 991 595 l 1190 595 l 1190 397 l 991 397 l 991 198 l 793 198 l 793 397 l 595 397 l 595 198 l 397 198 z "},"$":{"ha":1587,"x_min":0,"x_max":1389,"o":"m 595 0 l 595 198 l 198 198 l 198 397 l 793 397 l 793 595 l 198 595 l 198 793 l 0 793 l 0 991 l 198 991 l 198 1190 l 595 1190 l 595 1389 l 793 1389 l 793 1190 l 1190 1190 l 1190 991 l 595 991 l 595 793 l 1190 793 l 1190 595 l 1389 595 l 1389 397 l 1190 397 l 1190 198 l 793 198 l 793 0 l 595 0 z "},"%":{"ha":1587,"x_min":0,"x_max":1389,"o":"m 0 0 l 0 198 l 198 198 l 198 0 l 0 0 m 198 198 l 198 397 l 397 397 l 397 198 l 198 198 m 991 0 l 991 397 l 1389 397 l 1389 0 l 991 0 m 397 397 l 397 595 l 595 595 l 595 397 l 397 397 m 595 595 l 595 793 l 793 793 l 793 595 l 595 595 m 793 793 l 793 991 l 991 991 l 991 793 l 793 793 m 991 991 l 991 1190 l 1190 1190 l 1190 991 l 991 991 m 0 991 l 0 1389 l 397 1389 l 397 991 l 0 991 m 1190 1190 l 1190 1389 l 1389 1389 l 1389 1190 l 1190 1190 z "},"&":{"ha":1587,"x_min":0,"x_max":1389,"o":"m 991 0 l 991 198 l 1389 198 l 1389 0 l 991 0 m 793 198 l 793 397 l 991 397 l 991 198 l 793 198 m 198 0 l 198 198 l 0 198 l 0 595 l 397 595 l 397 198 l 793 198 l 793 0 l 198 0 m 595 397 l 595 595 l 793 595 l 793 397 l 595 397 m 991 397 l 991 595 l 1190 595 l 1190 397 l 991 397 m 397 595 l 397 793 l 595 793 l 595 595 l 397 595 m 198 793 l 198 1190 l 397 1190 l 397 793 l 198 793 m 595 793 l 595 1190 l 793 1190 l 793 793 l 595 793 m 397 1190 l 397 1389 l 595 1389 l 595 1190 l 397 1190 z "},"'":{"ha":1587,"x_min":595,"x_max":991,"o":"m 595 595 l 595 1389 l 991 1389 l 991 793 l 793 793 l 793 595 l 595 595 z "},"(":{"ha":1587,"x_min":397,"x_max":991,"o":"m 595 0 l 595 198 l 397 198 l 397 1190 l 595 1190 l 595 1389 l 991 1389 l 991 1190 l 793 1190 l 793 198 l 991 198 l 991 0 l 595 0 z "},")":{"ha":1587,"x_min":397,"x_max":991,"o":"m 397 0 l 397 198 l 595 198 l 595 1190 l 397 1190 l 397 1389 l 793 1389 l 793 1190 l 991 1190 l 991 198 l 793 198 l 793 0 l 397 0 z "},"*":{"ha":1587,"x_min":0,"x_max":1389,"o":"m 198 198 l 198 397 l 397 397 l 397 198 l 198 198 m 991 198 l 991 397 l 1190 397 l 1190 198 l 991 198 m 198 991 l 198 1190 l 397 1190 l 397 991 l 198 991 m 991 991 l 991 1190 l 1190 1190 l 1190 991 l 991 991 m 595 0 l 595 397 l 397 397 l 397 595 l 0 595 l 0 793 l 397 793 l 397 991 l 595 991 l 595 1389 l 793 1389 l 793 991 l 991 991 l 991 793 l 1389 793 l 1389 595 l 991 595 l 991 397 l 793 397 l 793 0 l 595 0 z "},"+":{"ha":1587,"x_min":198,"x_max":1389,"o":"m 595 198 l 595 595 l 198 595 l 198 793 l 595 793 l 595 1190 l 991 1190 l 991 793 l 1389 793 l 1389 595 l 991 595 l 991 198 l 595 198 z "},",":{"ha":1587,"x_min":595,"x_max":991,"o":"m 595 0 l 595 198 l 793 198 l 793 0 l 595 0 m 793 198 l 793 397 l 595 397 l 595 793 l 991 793 l 991 198 l 793 198 z "},"-":{"ha":1587,"x_min":198,"x_max":1190,"o":"m 198 595 l 198 793 l 1190 793 l 1190 595 l 198 595 z "},".":{"ha":1587,"x_min":595,"x_max":991,"o":"m 595 0 l 595 397 l 991 397 l 991 0 l 595 0 z "},"/":{"ha":1587,"x_min":0,"x_max":1389,"o":"m 0 0 l 0 198 l 198 198 l 198 0 l 0 0 m 198 198 l 198 397 l 397 397 l 397 198 l 198 198 m 397 397 l 397 595 l 595 595 l 595 397 l 397 397 m 595 595 l 595 793 l 793 793 l 793 595 l 595 595 m 793 793 l 793 991 l 991 991 l 991 793 l 793 793 m 991 991 l 991 1190 l 1190 1190 l 1190 991 l 991 991 m 1190 1190 l 1190 1389 l 1389 1389 l 1389 1190 l 1190 1190 z "},":":{"ha":1587,"x_min":595,"x_max":991,"o":"m 595 198 l 595 595 l 991 595 l 991 198 l 595 198 m 595 793 l 595 1190 l 991 1190 l 991 793 l 595 793 z "},";":{"ha":1587,"x_min":595,"x_max":991,"o":"m 595 0 l 595 198 l 793 198 l 793 0 l 595 0 m 793 198 l 793 397 l 595 397 l 595 793 l 991 793 l 991 198 l 793 198 m 595 991 l 595 1389 l 991 1389 l 991 991 l 595 991 z "},"<":{"ha":1587,"x_min":198,"x_max":1190,"o":"m 793 0 l 793 198 l 595 198 l 595 397 l 397 397 l 397 595 l 198 595 l 198 793 l 397 793 l 397 991 l 595 991 l 595 1190 l 793 1190 l 793 1389 l 1190 1389 l 1190 1190 l 991 1190 l 991 991 l 793 991 l 793 793 l 595 793 l 595 595 l 793 595 l 793 397 l 991 397 l 991 198 l 1190 198 l 1190 0 l 793 0 z "},"=":{"ha":1587,"x_min":198,"x_max":1389,"o":"m 198 397 l 198 595 l 1389 595 l 1389 397 l 198 397 m 198 793 l 198 991 l 1389 991 l 1389 793 l 198 793 z "},">":{"ha":1587,"x_min":198,"x_max":1190,"o":"m 198 0 l 198 198 l 397 198 l 397 397 l 595 397 l 595 595 l 793 595 l 793 793 l 595 793 l 595 991 l 397 991 l 397 1190 l 198 1190 l 198 1389 l 595 1389 l 595 1190 l 793 1190 l 793 991 l 991 991 l 991 793 l 1190 793 l 1190 595 l 991 595 l 991 397 l 793 397 l 793 198 l 595 198 l 595 0 l 198 0 z "},"?":{"ha":1587,"x_min":0,"x_max":1389,"o":"m 595 0 l 595 198 l 793 198 l 793 0 l 595 0 m 595 397 l 595 793 l 793 793 l 793 991 l 991 991 l 991 1190 l 397 1190 l 397 991 l 0 991 l 0 1190 l 198 1190 l 198 1389 l 1190 1389 l 1190 1190 l 1389 1190 l 1389 793 l 991 793 l 991 595 l 793 595 l 793 397 l 595 397 z "},"@":{"ha":1587,"x_min":0,"x_max":1389,"o":"m 991 595 l 991 793 l 793 793 l 793 595 l 991 595 m 198 0 l 198 198 l 0 198 l 0 1190 l 198 1190 l 198 1389 l 1190 1389 l 1190 1190 l 1389 1190 l 1389 595 l 1190 595 l 1190 397 l 595 397 l 595 991 l 991 991 l 991 1190 l 397 1190 l 397 198 l 1190 198 l 1190 0 l 198 0 z "},"A":{"ha":1587,"x_min":0,"x_max":1389,"o":"m 991 595 l 991 991 l 793 991 l 793 1190 l 595 1190 l 595 991 l 397 991 l 397 595 l 991 595 m 0 0 l 0 991 l 198 991 l 198 1190 l 397 1190 l 397 1389 l 991 1389 l 991 1190 l 1190 1190 l 1190 991 l 1389 991 l 1389 0 l 991 0 l 991 397 l 397 397 l 397 0 l 0 0 z "},"B":{"ha":1587,"x_min":0,"x_max":1389,"o":"m 991 198 l 991 595 l 397 595 l 397 198 l 991 198 m 991 793 l 991 1190 l 397 1190 l 397 793 l 991 793 m 0 0 l 0 1389 l 1190 1389 l 1190 1190 l 1389 1190 l 1389 793 l 1190 793 l 1190 595 l 1389 595 l 1389 198 l 1190 198 l 1190 0 l 0 0 z "},"C":{"ha":1587,"x_min":0,"x_max":1389,"o":"m 397 0 l 397 198 l 198 198 l 198 397 l 0 397 l 0 991 l 198 991 l 198 1190 l 397 1190 l 397 1389 l 1190 1389 l 1190 1190 l 1389 1190 l 1389 991 l 991 991 l 991 1190 l 595 1190 l 595 991 l 397 991 l 397 397 l 595 397 l 595 198 l 991 198 l 991 397 l 1389 397 l 1389 198 l 1190 198 l 1190 0 l 397 0 z "},"D":{"ha":1587,"x_min":0,"x_max":1389,"o":"m 793 198 l 793 397 l 991 397 l 991 991 l 793 991 l 793 1190 l 397 1190 l 397 198 l 793 198 m 0 0 l 0 1389 l 991 1389 l 991 1190 l 1190 1190 l 1190 991 l 1389 991 l 1389 397 l 1190 397 l 1190 198 l 991 198 l 991 0 l 0 0 z "},"E":{"ha":1587,"x_min":0,"x_max":1389,"o":"m 0 0 l 0 1389 l 1389 1389 l 1389 1190 l 397 1190 l 397 793 l 1190 793 l 1190 595 l 397 595 l 397 198 l 1389 198 l 1389 0 l 0 0 z "},"F":{"ha":1587,"x_min":0,"x_max":1389,"o":"m 0 0 l 0 1389 l 1389 1389 l 1389 1190 l 397 1190 l 397 793 l 1190 793 l 1190 595 l 397 595 l 397 0 l 0 0 z "},"G":{"ha":1587,"x_min":0,"x_max":1389,"o":"m 397 0 l 397 198 l 198 198 l 198 397 l 0 397 l 0 991 l 198 991 l 198 1190 l 397 1190 l 397 1389 l 1389 1389 l 1389 1190 l 595 1190 l 595 991 l 397 991 l 397 397 l 595 397 l 595 198 l 991 198 l 991 595 l 793 595 l 793 793 l 1389 793 l 1389 0 l 397 0 z "},"H":{"ha":1587,"x_min":0,"x_max":1389,"o":"m 0 0 l 0 1389 l 397 1389 l 397 793 l 991 793 l 991 1389 l 1389 1389 l 1389 0 l 991 0 l 991 595 l 397 595 l 397 0 l 0 0 z "},"I":{"ha":1587,"x_min":198,"x_max":1389,"o":"m 198 0 l 198 198 l 595 198 l 595 1190 l 198 1190 l 198 1389 l 1389 1389 l 1389 1190 l 991 1190 l 991 198 l 1389 198 l 1389 0 l 198 0 z "},"J":{"ha":1587,"x_min":0,"x_max":1389,"o":"m 198 0 l 198 198 l 0 198 l 0 397 l 397 397 l 397 198 l 991 198 l 991 1389 l 1389 1389 l 1389 198 l 1190 198 l 1190 0 l 198 0 z "},"K":{"ha":1587,"x_min":0,"x_max":1389,"o":"m 0 0 l 0 1389 l 397 1389 l 397 793 l 595 793 l 595 991 l 793 991 l 793 1190 l 991 1190 l 991 1389 l 1389 1389 l 1389 1190 l 1190 1190 l 1190 991 l 991 991 l 991 793 l 793 793 l 793 595 l 991 595 l 991 397 l 1190 397 l 1190 198 l 1389 198 l 1389 0 l 793 0 l 793 198 l 595 198 l 595 397 l 397 397 l 397 0 l 0 0 z "},"L":{"ha":1587,"x_min":0,"x_max":1389,"o":"m 0 0 l 0 1389 l 397 1389 l 397 198 l 1389 198 l 1389 0 l 0 0 z "},"M":{"ha":1587,"x_min":0,"x_max":1389,"o":"m 0 0 l 0 1389 l 397 1389 l 397 1190 l 595 1190 l 595 991 l 793 991 l 793 1190 l 991 1190 l 991 1389 l 1389 1389 l 1389 0 l 991 0 l 991 595 l 793 595 l 793 397 l 595 397 l 595 595 l 397 595 l 397 0 l 0 0 z "},"N":{"ha":1587,"x_min":0,"x_max":1389,"o":"m 0 0 l 0 1389 l 397 1389 l 397 1190 l 595 1190 l 595 991 l 793 991 l 793 793 l 991 793 l 991 1389 l 1389 1389 l 1389 0 l 991 0 l 991 198 l 793 198 l 793 397 l 595 397 l 595 595 l 397 595 l 397 0 l 0 0 z "},"O":{"ha":1587,"x_min":0,"x_max":1389,"o":"m 991 198 l 991 1190 l 397 1190 l 397 198 l 991 198 m 198 0 l 198 198 l 0 198 l 0 1190 l 198 1190 l 198 1389 l 1190 1389 l 1190 1190 l 1389 1190 l 1389 198 l 1190 198 l 1190 0 l 198 0 z "},"P":{"ha":1587,"x_min":0,"x_max":1389,"o":"m 991 595 l 991 1190 l 397 1190 l 397 595 l 991 595 m 0 0 l 0 1389 l 1190 1389 l 1190 1190 l 1389 1190 l 1389 595 l 1190 595 l 1190 397 l 397 397 l 397 0 l 0 0 z "},"Q":{"ha":1587,"x_min":0,"x_max":1389,"o":"m 1190 0 l 1190 198 l 1389 198 l 1389 0 l 1190 0 m 793 198 l 793 397 l 595 397 l 595 595 l 991 595 l 991 1190 l 397 1190 l 397 198 l 793 198 m 198 0 l 198 198 l 0 198 l 0 1190 l 198 1190 l 198 1389 l 1190 1389 l 1190 1190 l 1389 1190 l 1389 397 l 1190 397 l 1190 198 l 991 198 l 991 0 l 198 0 z "},"R":{"ha":1587,"x_min":0,"x_max":1389,"o":"m 793 595 l 793 793 l 991 793 l 991 1190 l 397 1190 l 397 595 l 793 595 m 0 0 l 0 1389 l 1190 1389 l 1190 1190 l 1389 1190 l 1389 595 l 991 595 l 991 397 l 1190 397 l 1190 198 l 1389 198 l 1389 0 l 793 0 l 793 198 l 595 198 l 595 397 l 397 397 l 397 0 l 0 0 z "},"S":{"ha":1587,"x_min":0,"x_max":1389,"o":"m 198 0 l 198 198 l 0 198 l 0 397 l 397 397 l 397 198 l 991 198 l 991 595 l 198 595 l 198 793 l 0 793 l 0 1190 l 198 1190 l 198 1389 l 991 1389 l 991 1190 l 1190 1190 l 1190 991 l 793 991 l 793 1190 l 397 1190 l 397 793 l 1190 793 l 1190 595 l 1389 595 l 1389 198 l 1190 198 l 1190 0 l 198 0 z "},"T":{"ha":1587,"x_min":198,"x_max":1389,"o":"m 595 0 l 595 1190 l 198 1190 l 198 1389 l 1389 1389 l 1389 1190 l 991 1190 l 991 0 l 595 0 z "},"U":{"ha":1587,"x_min":0,"x_max":1389,"o":"m 198 0 l 198 198 l 0 198 l 0 1389 l 397 1389 l 397 198 l 991 198 l 991 1389 l 1389 1389 l 1389 198 l 1190 198 l 1190 0 l 198 0 z "},"V":{"ha":1587,"x_min":0,"x_max":1389,"o":"m 595 0 l 595 198 l 397 198 l 397 397 l 198 397 l 198 595 l 0 595 l 0 1389 l 397 1389 l 397 793 l 595 793 l 595 595 l 793 595 l 793 793 l 991 793 l 991 1389 l 1389 1389 l 1389 595 l 1190 595 l 1190 397 l 991 397 l 991 198 l 793 198 l 793 0 l 595 0 z "},"W":{"ha":1587,"x_min":0,"x_max":1389,"o":"m 0 0 l 0 1389 l 397 1389 l 397 793 l 595 793 l 595 991 l 793 991 l 793 793 l 991 793 l 991 1389 l 1389 1389 l 1389 0 l 991 0 l 991 198 l 793 198 l 793 397 l 595 397 l 595 198 l 397 198 l 397 0 l 0 0 z "},"X":{"ha":1587,"x_min":0,"x_max":1389,"o":"m 0 0 l 0 397 l 198 397 l 198 595 l 397 595 l 397 793 l 198 793 l 198 991 l 0 991 l 0 1389 l 397 1389 l 397 1190 l 595 1190 l 595 991 l 793 991 l 793 1190 l 991 1190 l 991 1389 l 1389 1389 l 1389 991 l 1190 991 l 1190 793 l 991 793 l 991 595 l 1190 595 l 1190 397 l 1389 397 l 1389 0 l 991 0 l 991 198 l 793 198 l 793 397 l 595 397 l 595 198 l 397 198 l 397 0 l 0 0 z "},"Y":{"ha":1587,"x_min":198,"x_max":1389,"o":"m 595 0 l 595 595 l 397 595 l 397 793 l 198 793 l 198 1389 l 595 1389 l 595 793 l 991 793 l 991 1389 l 1389 1389 l 1389 793 l 1190 793 l 1190 595 l 991 595 l 991 0 l 595 0 z "},"Z":{"ha":1587,"x_min":0,"x_max":1389,"o":"m 0 0 l 0 397 l 198 397 l 198 595 l 397 595 l 397 793 l 595 793 l 595 991 l 793 991 l 793 1190 l 0 1190 l 0 1389 l 1389 1389 l 1389 991 l 1190 991 l 1190 793 l 991 793 l 991 595 l 793 595 l 793 397 l 595 397 l 595 198 l 1389 198 l 1389 0 l 0 0 z "},"[":{"ha":1587,"x_min":397,"x_max":1190,"o":"m 397 0 l 397 1389 l 1190 1389 l 1190 1190 l 793 1190 l 793 198 l 1190 198 l 1190 0 l 397 0 z "},"\\":{"ha":1587,"x_min":0,"x_max":1389,"o":"m 1190 0 l 1190 198 l 1389 198 l 1389 0 l 1190 0 m 991 198 l 991 397 l 1190 397 l 1190 198 l 991 198 m 793 397 l 793 595 l 991 595 l 991 397 l 793 397 m 595 595 l 595 793 l 793 793 l 793 595 l 595 595 m 397 793 l 397 991 l 595 991 l 595 793 l 397 793 m 198 991 l 198 1190 l 397 1190 l 397 991 l 198 991 m 0 1190 l 0 1389 l 198 1389 l 198 1190 l 0 1190 z "},"]":{"ha":1587,"x_min":397,"x_max":1190,"o":"m 397 0 l 397 198 l 793 198 l 793 1190 l 397 1190 l 397 1389 l 1190 1389 l 1190 0 l 397 0 z "},"^":{"ha":1587,"x_min":198,"x_max":1190,"o":"m 198 793 l 198 991 l 397 991 l 397 1190 l 595 1190 l 595 1389 l 793 1389 l 793 1190 l 991 1190 l 991 991 l 1190 991 l 1190 793 l 793 793 l 793 991 l 595 991 l 595 793 l 198 793 z "},"_":{"ha":1587,"x_min":-198,"x_max":1587,"o":"m -198 -198 l -198 0 l 1587 0 l 1587 -198 l -198 -198 z "},"`":{"ha":1587,"x_min":198,"x_max":793,"o":"m 397 991 l 397 1190 l 198 1190 l 198 1389 l 595 1389 l 595 1190 l 793 1190 l 793 991 l 397 991 z "},"a":{"ha":1587,"x_min":0,"x_max":1389,"o":"m 991 198 l 991 397 l 397 397 l 397 198 l 991 198 m 198 0 l 198 198 l 0 198 l 0 397 l 198 397 l 198 595 l 991 595 l 991 793 l 198 793 l 198 991 l 1190 991 l 1190 793 l 1389 793 l 1389 0 l 198 0 z "},"b":{"ha":1587,"x_min":0,"x_max":1389,"o":"m 991 198 l 991 793 l 397 793 l 397 198 l 991 198 m 0 0 l 0 1389 l 397 1389 l 397 991 l 1190 991 l 1190 793 l 1389 793 l 1389 198 l 1190 198 l 1190 0 l 0 0 z "},"c":{"ha":1587,"x_min":0,"x_max":1389,"o":"m 198 0 l 198 198 l 0 198 l 0 793 l 198 793 l 198 991 l 1389 991 l 1389 793 l 397 793 l 397 198 l 1389 198 l 1389 0 l 198 0 z "},"d":{"ha":1587,"x_min":0,"x_max":1389,"o":"m 991 198 l 991 793 l 397 793 l 397 198 l 991 198 m 198 0 l 198 198 l 0 198 l 0 793 l 198 793 l 198 991 l 991 991 l 991 1389 l 1389 1389 l 1389 0 l 198 0 z "},"e":{"ha":1587,"x_min":0,"x_max":1389,"o":"m 991 595 l 991 793 l 397 793 l 397 595 l 991 595 m 198 0 l 198 198 l 0 198 l 0 793 l 198 793 l 198 991 l 1190 991 l 1190 793 l 1389 793 l 1389 397 l 397 397 l 397 198 l 1389 198 l 1389 0 l 198 0 z "},"f":{"ha":1587,"x_min":0,"x_max":1389,"o":"m 397 0 l 397 793 l 0 793 l 0 991 l 397 991 l 397 1190 l 595 1190 l 595 1389 l 1389 1389 l 1389 1190 l 793 1190 l 793 991 l 1389 991 l 1389 793 l 793 793 l 793 0 l 397 0 z "},"g":{"ha":1587,"x_min":0,"x_max":1389,"o":"m 991 595 l 991 793 l 397 793 l 397 595 l 991 595 m 0 0 l 0 198 l 991 198 l 991 397 l 198 397 l 198 595 l 0 595 l 0 793 l 198 793 l 198 991 l 1389 991 l 1389 198 l 1190 198 l 1190 0 l 0 0 z "},"h":{"ha":1587,"x_min":0,"x_max":1389,"o":"m 0 0 l 0 1389 l 397 1389 l 397 991 l 1190 991 l 1190 793 l 1389 793 l 1389 0 l 991 0 l 991 793 l 397 793 l 397 0 l 0 0 z "},"i":{"ha":1587,"x_min":198,"x_max":1389,"o":"m 198 0 l 198 198 l 595 198 l 595 793 l 397 793 l 397 991 l 991 991 l 991 198 l 1389 198 l 1389 0 l 198 0 m 595 1190 l 595 1389 l 991 1389 l 991 1190 l 595 1190 z "},"j":{"ha":1587,"x_min":0,"x_max":1389,"o":"m 198 0 l 198 198 l 0 198 l 0 397 l 397 397 l 397 198 l 991 198 l 991 991 l 1389 991 l 1389 198 l 1190 198 l 1190 0 l 198 0 m 991 1190 l 991 1389 l 1389 1389 l 1389 1190 l 991 1190 z "},"k":{"ha":1587,"x_min":0,"x_max":1389,"o":"m 0 0 l 0 1389 l 397 1389 l 397 595 l 793 595 l 793 793 l 991 793 l 991 991 l 1389 991 l 1389 793 l 1190 793 l 1190 595 l 991 595 l 991 397 l 1190 397 l 1190 198 l 1389 198 l 1389 0 l 991 0 l 991 198 l 793 198 l 793 397 l 397 397 l 397 0 l 0 0 z "},"l":{"ha":1587,"x_min":198,"x_max":1389,"o":"m 198 0 l 198 198 l 595 198 l 595 1190 l 397 1190 l 397 1389 l 991 1389 l 991 198 l 1389 198 l 1389 0 l 198 0 z "},"m":{"ha":1587,"x_min":0,"x_max":1389,"o":"m 0 0 l 0 991 l 1190 991 l 1190 793 l 1389 793 l 1389 0 l 991 0 l 991 793 l 793 793 l 793 0 l 595 0 l 595 793 l 397 793 l 397 0 l 0 0 z "},"n":{"ha":1587,"x_min":0,"x_max":1389,"o":"m 0 0 l 0 991 l 1190 991 l 1190 793 l 1389 793 l 1389 0 l 991 0 l 991 793 l 397 793 l 397 0 l 0 0 z "},"o":{"ha":1587,"x_min":0,"x_max":1389,"o":"m 991 198 l 991 793 l 397 793 l 397 198 l 991 198 m 198 0 l 198 198 l 0 198 l 0 793 l 198 793 l 198 991 l 1190 991 l 1190 793 l 1389 793 l 1389 198 l 1190 198 l 1190 0 l 198 0 z "},"p":{"ha":1587,"x_min":0,"x_max":1389,"o":"m 991 595 l 991 793 l 397 793 l 397 595 l 991 595 m 0 0 l 0 991 l 1190 991 l 1190 793 l 1389 793 l 1389 595 l 1190 595 l 1190 397 l 397 397 l 397 0 l 0 0 z "},"q":{"ha":1587,"x_min":0,"x_max":1389,"o":"m 991 595 l 991 793 l 397 793 l 397 595 l 991 595 m 991 0 l 991 397 l 198 397 l 198 595 l 0 595 l 0 793 l 198 793 l 198 991 l 1389 991 l 1389 0 l 991 0 z "},"r":{"ha":1587,"x_min":0,"x_max":1389,"o":"m 0 0 l 0 991 l 397 991 l 397 793 l 595 793 l 595 991 l 1389 991 l 1389 793 l 793 793 l 793 595 l 397 595 l 397 0 l 0 0 z "},"s":{"ha":1587,"x_min":0,"x_max":1389,"o":"m 0 0 l 0 198 l 991 198 l 991 397 l 198 397 l 198 595 l 0 595 l 0 793 l 198 793 l 198 991 l 1389 991 l 1389 793 l 397 793 l 397 595 l 1190 595 l 1190 397 l 1389 397 l 1389 198 l 1190 198 l 1190 0 l 0 0 z "},"t":{"ha":1587,"x_min":0,"x_max":1389,"o":"m 397 0 l 397 198 l 198 198 l 198 793 l 0 793 l 0 991 l 198 991 l 198 1389 l 595 1389 l 595 991 l 793 991 l 793 793 l 595 793 l 595 198 l 991 198 l 991 397 l 1389 397 l 1389 198 l 1190 198 l 1190 0 l 397 0 z "},"u":{"ha":1587,"x_min":0,"x_max":1389,"o":"m 198 0 l 198 198 l 0 198 l 0 991 l 397 991 l 397 198 l 991 198 l 991 991 l 1389 991 l 1389 0 l 198 0 z "},"v":{"ha":1587,"x_min":0,"x_max":1389,"o":"m 595 0 l 595 198 l 397 198 l 397 397 l 198 397 l 198 595 l 0 595 l 0 991 l 397 991 l 397 595 l 595 595 l 595 397 l 793 397 l 793 595 l 991 595 l 991 991 l 1389 991 l 1389 595 l 1190 595 l 1190 397 l 991 397 l 991 198 l 793 198 l 793 0 l 595 0 z "},"w":{"ha":1587,"x_min":0,"x_max":1389,"o":"m 198 0 l 198 198 l 0 198 l 0 991 l 397 991 l 397 198 l 595 198 l 595 793 l 793 793 l 793 198 l 991 198 l 991 991 l 1389 991 l 1389 0 l 198 0 z "},"x":{"ha":1587,"x_min":0,"x_max":1389,"o":"m 0 0 l 0 198 l 198 198 l 198 397 l 397 397 l 397 595 l 198 595 l 198 793 l 0 793 l 0 991 l 397 991 l 397 793 l 595 793 l 595 595 l 793 595 l 793 793 l 991 793 l 991 991 l 1389 991 l 1389 793 l 1190 793 l 1190 595 l 991 595 l 991 397 l 1190 397 l 1190 198 l 1389 198 l 1389 0 l 991 0 l 991 198 l 793 198 l 793 397 l 595 397 l 595 198 l 397 198 l 397 0 l 0 0 z "},"y":{"ha":1587,"x_min":0,"x_max":1389,"o":"m 0 0 l 0 198 l 991 198 l 991 397 l 198 397 l 198 595 l 0 595 l 0 991 l 397 991 l 397 595 l 991 595 l 991 991 l 1389 991 l 1389 198 l 1190 198 l 1190 0 l 0 0 z "},"z":{"ha":1587,"x_min":0,"x_max":1389,"o":"m 0 0 l 0 198 l 198 198 l 198 397 l 397 397 l 397 595 l 793 595 l 793 793 l 0 793 l 0 991 l 1389 991 l 1389 793 l 1190 793 l 1190 595 l 991 595 l 991 397 l 595 397 l 595 198 l 1389 198 l 1389 0 l 0 0 z "},"{":{"ha":1587,"x_min":198,"x_max":991,"o":"m 595 0 l 595 198 l 397 198 l 397 595 l 198 595 l 198 793 l 397 793 l 397 1190 l 595 1190 l 595 1389 l 991 1389 l 991 1190 l 793 1190 l 793 793 l 595 793 l 595 595 l 793 595 l 793 198 l 991 198 l 991 0 l 595 0 z "},"|":{"ha":1587,"x_min":595,"x_max":991,"o":"m 595 0 l 595 1389 l 991 1389 l 991 0 l 595 0 z "},"}":{"ha":1587,"x_min":397,"x_max":1190,"o":"m 397 0 l 397 198 l 595 198 l 595 595 l 793 595 l 793 793 l 595 793 l 595 1190 l 397 1190 l 397 1389 l 793 1389 l 793 1190 l 991 1190 l 991 793 l 1190 793 l 1190 595 l 991 595 l 991 198 l 793 198 l 793 0 l 397 0 z "},"~":{"ha":1587,"x_min":198,"x_max":1389,"o":"m 198 595 l 198 793 l 397 793 l 397 595 l 198 595 m 793 595 l 793 793 l 1190 793 l 1190 595 l 793 595 m 397 793 l 397 991 l 793 991 l 793 793 l 397 793 m 1190 793 l 1190 991 l 1389 991 l 1389 793 l 1190 793 z "},"¡":{"ha":1587,"x_min":198,"x_max":1190,"o":"m 198 0 l 198 397 l 397 397 l 397 595 l 595 595 l 595 793 l 793 793 l 793 991 l 991 991 l 991 397 l 793 397 l 793 0 l 198 0 m 991 1190 l 991 1389 l 1190 1389 l 1190 1190 l 991 1190 z "},"¢":{"ha":1587,"x_min":0,"x_max":1389,"o":"m 595 397 l 595 991 l 397 991 l 397 397 l 595 397 m 595 0 l 595 198 l 198 198 l 198 397 l 0 397 l 0 991 l 198 991 l 198 1190 l 595 1190 l 595 1389 l 991 1389 l 991 1190 l 1389 1190 l 1389 991 l 991 991 l 991 397 l 1389 397 l 1389 198 l 991 198 l 991 0 l 595 0 z "},"£":{"ha":1587,"x_min":0,"x_max":1389,"o":"m 0 0 l 0 198 l 397 198 l 397 595 l 0 595 l 0 793 l 397 793 l 397 1190 l 595 1190 l 595 1389 l 1190 1389 l 1190 1190 l 793 1190 l 793 793 l 1190 793 l 1190 595 l 793 595 l 793 198 l 1389 198 l 1389 0 l 0 0 z "},"¤":{"ha":1587,"x_min":198,"x_max":1190,"o":"m 198 198 l 198 397 l 397 397 l 397 198 l 198 198 m 991 198 l 991 397 l 1190 397 l 1190 198 l 991 198 m 793 595 l 793 793 l 595 793 l 595 595 l 793 595 m 397 397 l 397 991 l 991 991 l 991 397 l 397 397 m 198 991 l 198 1190 l 397 1190 l 397 991 l 198 991 m 991 991 l 991 1190 l 1190 1190 l 1190 991 l 991 991 z "},"¥":{"ha":1587,"x_min":198,"x_max":1389,"o":"m 595 0 l 595 198 l 198 198 l 198 397 l 595 397 l 595 595 l 198 595 l 198 793 l 595 793 l 595 991 l 397 991 l 397 1190 l 198 1190 l 198 1389 l 595 1389 l 595 1190 l 991 1190 l 991 1389 l 1389 1389 l 1389 1190 l 1190 1190 l 1190 991 l 991 991 l 991 793 l 1389 793 l 1389 595 l 991 595 l 991 397 l 1389 397 l 1389 198 l 991 198 l 991 0 l 595 0 z "},"¦":{"ha":1587,"x_min":595,"x_max":991,"o":"m 595 0 l 595 595 l 991 595 l 991 0 l 595 0 m 595 793 l 595 1389 l 991 1389 l 991 793 l 595 793 z "},"§":{"ha":1587,"x_min":0,"x_max":1389,"o":"m 198 0 l 198 198 l 0 198 l 0 397 l 397 397 l 397 198 l 991 198 l 991 397 l 595 397 l 595 595 l 793 595 l 793 793 l 1190 793 l 1190 397 l 1389 397 l 1389 198 l 1190 198 l 1190 0 l 198 0 m 198 595 l 198 991 l 0 991 l 0 1190 l 198 1190 l 198 1389 l 1190 1389 l 1190 1190 l 1389 1190 l 1389 991 l 991 991 l 991 1190 l 397 1190 l 397 991 l 793 991 l 793 793 l 595 793 l 595 595 l 198 595 z "},"¨":{"ha":1587,"x_min":397,"x_max":991,"o":"m 397 1190 l 397 1389 l 595 1389 l 595 1190 l 397 1190 m 793 1190 l 793 1389 l 991 1389 l 991 1190 l 793 1190 z "},"©":{"ha":1587,"x_min":0,"x_max":1389,"o":"m 198 0 l 198 198 l 1190 198 l 1190 0 l 198 0 m 397 397 l 397 991 l 991 991 l 991 793 l 595 793 l 595 595 l 991 595 l 991 397 l 397 397 m 0 198 l 0 1190 l 198 1190 l 198 198 l 0 198 m 1190 198 l 1190 1190 l 1389 1190 l 1389 198 l 1190 198 m 198 1190 l 198 1389 l 1190 1389 l 1190 1190 l 198 1190 z "},"ª":{"ha":1587,"x_min":0,"x_max":595,"o":"m 0 595 l 0 793 l 198 793 l 198 595 l 0 595 m 198 397 l 198 595 l 397 595 l 397 793 l 198 793 l 198 991 l 397 991 l 397 1190 l 595 1190 l 595 397 l 198 397 m 0 1190 l 0 1389 l 397 1389 l 397 1190 l 0 1190 z "},"«":{"ha":1587,"x_min":0,"x_max":1190,"o":"m 397 198 l 397 397 l 595 397 l 595 198 l 397 198 m 991 198 l 991 397 l 1190 397 l 1190 198 l 991 198 m 198 397 l 198 595 l 397 595 l 397 397 l 198 397 m 793 397 l 793 595 l 991 595 l 991 397 l 793 397 m 0 595 l 0 793 l 198 793 l 198 595 l 0 595 m 595 595 l 595 793 l 793 793 l 793 595 l 595 595 m 198 793 l 198 991 l 397 991 l 397 793 l 198 793 m 793 793 l 793 991 l 991 991 l 991 793 l 793 793 m 397 991 l 397 1190 l 595 1190 l 595 991 l 397 991 m 991 991 l 991 1190 l 1190 1190 l 1190 991 l 991 991 z "},"¬":{"ha":1587,"x_min":0,"x_max":1389,"o":"m 991 397 l 991 793 l 0 793 l 0 991 l 1389 991 l 1389 397 l 991 397 z "},"­":{"ha":1587,"x_min":397,"x_max":991,"o":"m 397 595 l 397 793 l 991 793 l 991 595 l 397 595 z "},"®":{"ha":1587,"x_min":0,"x_max":1389,"o":"m 198 0 l 198 198 l 1190 198 l 1190 0 l 198 0 m 397 397 l 397 991 l 991 991 l 991 793 l 595 793 l 595 397 l 397 397 m 0 198 l 0 1190 l 198 1190 l 198 198 l 0 198 m 1190 198 l 1190 1190 l 1389 1190 l 1389 198 l 1190 198 m 198 1190 l 198 1389 l 1190 1389 l 1190 1190 l 198 1190 z "},"¯":{"ha":1587,"x_min":0,"x_max":1389,"o":"m 0 1190 l 0 1389 l 1389 1389 l 1389 1190 l 0 1190 z "},"°":{"ha":1587,"x_min":397,"x_max":991,"o":"m 793 991 l 793 1190 l 595 1190 l 595 991 l 793 991 m 397 793 l 397 1389 l 991 1389 l 991 793 l 397 793 z "},"±":{"ha":1587,"x_min":198,"x_max":1389,"o":"m 198 198 l 198 397 l 1389 397 l 1389 198 l 198 198 m 595 595 l 595 793 l 198 793 l 198 991 l 595 991 l 595 1190 l 991 1190 l 991 991 l 1389 991 l 1389 793 l 991 793 l 991 595 l 595 595 z "},"²":{"ha":1587,"x_min":397,"x_max":991,"o":"m 397 397 l 397 793 l 595 793 l 595 595 l 991 595 l 991 397 l 397 397 m 595 793 l 595 991 l 793 991 l 793 793 l 595 793 m 793 991 l 793 1190 l 991 1190 l 991 991 l 793 991 m 397 1190 l 397 1389 l 793 1389 l 793 1190 l 397 1190 z "},"³":{"ha":1587,"x_min":397,"x_max":991,"o":"m 397 397 l 397 595 l 793 595 l 793 397 l 397 397 m 793 595 l 793 793 l 991 793 l 991 595 l 793 595 m 595 793 l 595 991 l 793 991 l 793 793 l 595 793 m 793 991 l 793 1190 l 991 1190 l 991 991 l 793 991 m 397 1190 l 397 1389 l 793 1389 l 793 1190 l 397 1190 z "},"´":{"ha":1587,"x_min":397,"x_max":1190,"o":"m 397 793 l 397 991 l 595 991 l 595 793 l 397 793 m 595 991 l 595 1389 l 1190 1389 l 1190 1190 l 991 1190 l 991 991 l 595 991 z "},"µ":{"ha":1587,"x_min":0,"x_max":1389,"o":"m 0 -397 l 0 991 l 397 991 l 397 198 l 991 198 l 991 991 l 1389 991 l 1389 0 l 397 0 l 397 -397 l 0 -397 z "},"¶":{"ha":1587,"x_min":0,"x_max":1190,"o":"m 397 0 l 397 595 l 198 595 l 198 793 l 0 793 l 0 1190 l 198 1190 l 198 1389 l 1190 1389 l 1190 1190 l 991 1190 l 991 0 l 793 0 l 793 1190 l 595 1190 l 595 0 l 397 0 z "},"·":{"ha":1587,"x_min":595,"x_max":793,"o":"m 595 595 l 595 793 l 793 793 l 793 595 l 595 595 z "},"¸":{"ha":1587,"x_min":397,"x_max":991,"o":"m 397 -397 l 397 -198 l 595 -198 l 595 0 l 991 0 l 991 -198 l 793 -198 l 793 -397 l 397 -397 z "},"¹":{"ha":1587,"x_min":397,"x_max":991,"o":"m 397 397 l 397 595 l 595 595 l 595 1190 l 397 1190 l 397 1389 l 793 1389 l 793 595 l 991 595 l 991 397 l 397 397 z "},"º":{"ha":1587,"x_min":198,"x_max":1190,"o":"m 793 595 l 793 1190 l 595 1190 l 595 595 l 793 595 m 397 397 l 397 595 l 198 595 l 198 1190 l 397 1190 l 397 1389 l 991 1389 l 991 1190 l 1190 1190 l 1190 595 l 991 595 l 991 397 l 397 397 z "},"»":{"ha":1587,"x_min":198,"x_max":1389,"o":"m 198 198 l 198 397 l 397 397 l 397 198 l 198 198 m 793 198 l 793 397 l 991 397 l 991 198 l 793 198 m 397 397 l 397 595 l 595 595 l 595 397 l 397 397 m 991 397 l 991 595 l 1190 595 l 1190 397 l 991 397 m 595 595 l 595 793 l 793 793 l 793 595 l 595 595 m 1190 595 l 1190 793 l 1389 793 l 1389 595 l 1190 595 m 397 793 l 397 991 l 595 991 l 595 793 l 397 793 m 991 793 l 991 991 l 1190 991 l 1190 793 l 991 793 m 198 991 l 198 1190 l 397 1190 l 397 991 l 198 991 m 793 991 l 793 1190 l 991 1190 l 991 991 l 793 991 z "},"¼":{"ha":1587,"x_min":0,"x_max":1389,"o":"m 0 0 l 0 198 l 198 198 l 198 0 l 0 0 m 198 198 l 198 397 l 397 397 l 397 198 l 198 198 m 991 991 l 991 1190 l 1190 1190 l 1190 991 l 991 991 m 1190 0 l 1190 198 l 793 198 l 793 595 l 595 595 l 595 397 l 397 397 l 397 595 l 0 595 l 0 793 l 198 793 l 198 1190 l 0 1190 l 0 1389 l 397 1389 l 397 793 l 793 793 l 793 991 l 991 991 l 991 397 l 1190 397 l 1190 793 l 1389 793 l 1389 0 l 1190 0 m 1190 1190 l 1190 1389 l 1389 1389 l 1389 1190 l 1190 1190 z "},"½":{"ha":1587,"x_min":0,"x_max":1389,"o":"m 0 0 l 0 198 l 198 198 l 198 0 l 0 0 m 198 198 l 198 397 l 397 397 l 397 198 l 198 198 m 793 0 l 793 198 l 991 198 l 991 397 l 1190 397 l 1190 198 l 1389 198 l 1389 0 l 793 0 m 1190 397 l 1190 595 l 1389 595 l 1389 397 l 1190 397 m 991 991 l 991 1190 l 1190 1190 l 1190 991 l 991 991 m 397 397 l 397 595 l 0 595 l 0 793 l 198 793 l 198 1190 l 0 1190 l 0 1389 l 397 1389 l 397 793 l 793 793 l 793 991 l 991 991 l 991 793 l 1190 793 l 1190 595 l 595 595 l 595 397 l 397 397 m 1190 1190 l 1190 1389 l 1389 1389 l 1389 1190 l 1190 1190 z "},"¾":{"ha":1587,"x_min":0,"x_max":1389,"o":"m 0 0 l 0 198 l 198 198 l 198 0 l 0 0 m 198 198 l 198 397 l 397 397 l 397 198 l 198 198 m 991 991 l 991 1190 l 1190 1190 l 1190 991 l 991 991 m 1190 0 l 1190 198 l 793 198 l 793 595 l 595 595 l 595 397 l 397 397 l 397 595 l 0 595 l 0 793 l 397 793 l 397 991 l 198 991 l 198 1190 l 0 1190 l 0 1389 l 595 1389 l 595 793 l 793 793 l 793 991 l 991 991 l 991 397 l 1190 397 l 1190 793 l 1389 793 l 1389 0 l 1190 0 m 1190 1190 l 1190 1389 l 1389 1389 l 1389 1190 l 1190 1190 z "},"¿":{"ha":1587,"x_min":0,"x_max":1389,"o":"m 198 0 l 198 198 l 0 198 l 0 595 l 397 595 l 397 793 l 595 793 l 595 991 l 793 991 l 793 595 l 595 595 l 595 397 l 397 397 l 397 198 l 991 198 l 991 397 l 1389 397 l 1389 198 l 1190 198 l 1190 0 l 198 0 m 595 1190 l 595 1389 l 793 1389 l 793 1190 l 595 1190 z "},"À":{"ha":1587,"x_min":0,"x_max":1389,"o":"m 991 595 l 991 991 l 793 991 l 793 1190 l 595 1190 l 595 991 l 397 991 l 397 595 l 991 595 m 0 0 l 0 991 l 198 991 l 198 1190 l 397 1190 l 397 1389 l 991 1389 l 991 1190 l 1190 1190 l 1190 991 l 1389 991 l 1389 0 l 991 0 l 991 397 l 397 397 l 397 0 l 0 0 m 595 1587 l 595 1786 l 397 1786 l 397 1984 l 793 1984 l 793 1786 l 991 1786 l 991 1587 l 595 1587 z "},"Á":{"ha":1587,"x_min":0,"x_max":1389,"o":"m 991 595 l 991 991 l 793 991 l 793 1190 l 595 1190 l 595 991 l 397 991 l 397 595 l 991 595 m 0 0 l 0 991 l 198 991 l 198 1190 l 397 1190 l 397 1389 l 991 1389 l 991 1190 l 1190 1190 l 1190 991 l 1389 991 l 1389 0 l 991 0 l 991 397 l 397 397 l 397 0 l 0 0 m 397 1587 l 397 1786 l 595 1786 l 595 1984 l 991 1984 l 991 1786 l 793 1786 l 793 1587 l 397 1587 z "},"Â":{"ha":1587,"x_min":0,"x_max":1389,"o":"m 991 595 l 991 991 l 793 991 l 793 1190 l 595 1190 l 595 991 l 397 991 l 397 595 l 991 595 m 0 0 l 0 991 l 198 991 l 198 1190 l 397 1190 l 397 1389 l 991 1389 l 991 1190 l 1190 1190 l 1190 991 l 1389 991 l 1389 0 l 991 0 l 991 397 l 397 397 l 397 0 l 0 0 m 397 1587 l 397 1786 l 595 1786 l 595 1587 l 397 1587 m 793 1587 l 793 1786 l 991 1786 l 991 1587 l 793 1587 m 595 1786 l 595 1984 l 793 1984 l 793 1786 l 595 1786 z "},"Ã":{"ha":1587,"x_min":0,"x_max":1389,"o":"m 991 595 l 991 991 l 793 991 l 793 1190 l 595 1190 l 595 991 l 397 991 l 397 595 l 991 595 m 0 0 l 0 991 l 198 991 l 198 1190 l 397 1190 l 397 1389 l 991 1389 l 991 1190 l 1190 1190 l 1190 991 l 1389 991 l 1389 0 l 991 0 l 991 397 l 397 397 l 397 0 l 0 0 m 198 1587 l 198 1786 l 397 1786 l 397 1587 l 198 1587 m 595 1587 l 595 1786 l 397 1786 l 397 1984 l 793 1984 l 793 1786 l 991 1786 l 991 1587 l 595 1587 m 991 1786 l 991 1984 l 1190 1984 l 1190 1786 l 991 1786 z "},"Ä":{"ha":1587,"x_min":0,"x_max":1389,"o":"m 991 595 l 991 991 l 793 991 l 793 1190 l 595 1190 l 595 991 l 397 991 l 397 595 l 991 595 m 0 0 l 0 991 l 198 991 l 198 1190 l 397 1190 l 397 1389 l 991 1389 l 991 1190 l 1190 1190 l 1190 991 l 1389 991 l 1389 0 l 991 0 l 991 397 l 397 397 l 397 0 l 0 0 m 397 1587 l 397 1786 l 991 1786 l 991 1587 l 397 1587 z "},"Å":{"ha":1587,"x_min":0,"x_max":1389,"o":"m 991 595 l 991 991 l 793 991 l 793 1190 l 595 1190 l 595 991 l 397 991 l 397 595 l 991 595 m 0 0 l 0 991 l 198 991 l 198 1190 l 397 1190 l 397 1389 l 991 1389 l 991 1190 l 1190 1190 l 1190 991 l 1389 991 l 1389 0 l 991 0 l 991 397 l 397 397 l 397 0 l 0 0 m 793 1786 l 793 1984 l 595 1984 l 595 1786 l 793 1786 m 397 1587 l 397 2182 l 991 2182 l 991 1587 l 397 1587 z "},"Ç":{"ha":1587,"x_min":0,"x_max":1389,"o":"m 397 -397 l 397 -198 l 595 -198 l 595 0 l 397 0 l 397 198 l 198 198 l 198 397 l 0 397 l 0 991 l 198 991 l 198 1190 l 397 1190 l 397 1389 l 1190 1389 l 1190 1190 l 1389 1190 l 1389 991 l 991 991 l 991 1190 l 595 1190 l 595 991 l 397 991 l 397 397 l 595 397 l 595 198 l 991 198 l 991 397 l 1389 397 l 1389 198 l 1190 198 l 1190 0 l 991 0 l 991 -198 l 793 -198 l 793 -397 l 397 -397 z "},"È":{"ha":1587,"x_min":0,"x_max":1389,"o":"m 0 0 l 0 1389 l 1389 1389 l 1389 1190 l 397 1190 l 397 793 l 1190 793 l 1190 595 l 397 595 l 397 198 l 1389 198 l 1389 0 l 0 0 m 595 1587 l 595 1786 l 397 1786 l 397 1984 l 793 1984 l 793 1786 l 991 1786 l 991 1587 l 595 1587 z "},"É":{"ha":1587,"x_min":0,"x_max":1389,"o":"m 0 0 l 0 1389 l 1389 1389 l 1389 1190 l 397 1190 l 397 793 l 1190 793 l 1190 595 l 397 595 l 397 198 l 1389 198 l 1389 0 l 0 0 m 397 1587 l 397 1786 l 595 1786 l 595 1984 l 991 1984 l 991 1786 l 793 1786 l 793 1587 l 397 1587 z "},"Ê":{"ha":1587,"x_min":0,"x_max":1389,"o":"m 0 0 l 0 1389 l 1389 1389 l 1389 1190 l 397 1190 l 397 793 l 1190 793 l 1190 595 l 397 595 l 397 198 l 1389 198 l 1389 0 l 0 0 m 397 1587 l 397 1786 l 595 1786 l 595 1587 l 397 1587 m 793 1587 l 793 1786 l 991 1786 l 991 1587 l 793 1587 m 595 1786 l 595 1984 l 793 1984 l 793 1786 l 595 1786 z "},"Ë":{"ha":1587,"x_min":0,"x_max":1389,"o":"m 0 0 l 0 1389 l 1389 1389 l 1389 1190 l 397 1190 l 397 793 l 1190 793 l 1190 595 l 397 595 l 397 198 l 1389 198 l 1389 0 l 0 0 m 397 1587 l 397 1786 l 595 1786 l 595 1587 l 397 1587 m 793 1587 l 793 1786 l 991 1786 l 991 1587 l 793 1587 z "},"Ì":{"ha":1587,"x_min":198,"x_max":1389,"o":"m 198 0 l 198 198 l 595 198 l 595 1190 l 198 1190 l 198 1389 l 1389 1389 l 1389 1190 l 991 1190 l 991 198 l 1389 198 l 1389 0 l 198 0 m 595 1587 l 595 1786 l 397 1786 l 397 1984 l 793 1984 l 793 1786 l 991 1786 l 991 1587 l 595 1587 z "},"Í":{"ha":1587,"x_min":198,"x_max":1389,"o":"m 198 0 l 198 198 l 595 198 l 595 1190 l 198 1190 l 198 1389 l 1389 1389 l 1389 1190 l 991 1190 l 991 198 l 1389 198 l 1389 0 l 198 0 m 595 1587 l 595 1786 l 793 1786 l 793 1984 l 1190 1984 l 1190 1786 l 991 1786 l 991 1587 l 595 1587 z "},"Î":{"ha":1587,"x_min":198,"x_max":1389,"o":"m 198 0 l 198 198 l 595 198 l 595 1190 l 198 1190 l 198 1389 l 1389 1389 l 1389 1190 l 991 1190 l 991 198 l 1389 198 l 1389 0 l 198 0 m 397 1587 l 397 1786 l 595 1786 l 595 1587 l 397 1587 m 991 1587 l 991 1786 l 1190 1786 l 1190 1587 l 991 1587 m 595 1786 l 595 1984 l 991 1984 l 991 1786 l 595 1786 z "},"Ï":{"ha":1587,"x_min":198,"x_max":1389,"o":"m 198 0 l 198 198 l 595 198 l 595 1190 l 198 1190 l 198 1389 l 1389 1389 l 1389 1190 l 991 1190 l 991 198 l 1389 198 l 1389 0 l 198 0 m 397 1587 l 397 1786 l 595 1786 l 595 1587 l 397 1587 m 991 1587 l 991 1786 l 1190 1786 l 1190 1587 l 991 1587 z "},"Ð":{"ha":1587,"x_min":-198,"x_max":1389,"o":"m 793 198 l 793 397 l 991 397 l 991 991 l 793 991 l 793 1190 l 397 1190 l 397 793 l 595 793 l 595 595 l 397 595 l 397 198 l 793 198 m 0 0 l 0 595 l -198 595 l -198 793 l 0 793 l 0 1389 l 991 1389 l 991 1190 l 1190 1190 l 1190 991 l 1389 991 l 1389 397 l 1190 397 l 1190 198 l 991 198 l 991 0 l 0 0 z "},"Ñ":{"ha":1587,"x_min":0,"x_max":1389,"o":"m 0 0 l 0 1389 l 397 1389 l 397 1190 l 595 1190 l 595 991 l 793 991 l 793 793 l 991 793 l 991 1389 l 1389 1389 l 1389 0 l 991 0 l 991 198 l 793 198 l 793 397 l 595 397 l 595 595 l 397 595 l 397 0 l 0 0 m 198 1587 l 198 1786 l 397 1786 l 397 1587 l 198 1587 m 595 1587 l 595 1786 l 397 1786 l 397 1984 l 793 1984 l 793 1786 l 991 1786 l 991 1587 l 595 1587 m 991 1786 l 991 1984 l 1190 1984 l 1190 1786 l 991 1786 z "},"Ò":{"ha":1587,"x_min":0,"x_max":1389,"o":"m 991 198 l 991 1190 l 397 1190 l 397 198 l 991 198 m 198 0 l 198 198 l 0 198 l 0 1190 l 198 1190 l 198 1389 l 1190 1389 l 1190 1190 l 1389 1190 l 1389 198 l 1190 198 l 1190 0 l 198 0 m 595 1587 l 595 1786 l 397 1786 l 397 1984 l 793 1984 l 793 1786 l 991 1786 l 991 1587 l 595 1587 z "},"Ó":{"ha":1587,"x_min":0,"x_max":1389,"o":"m 991 198 l 991 1190 l 397 1190 l 397 198 l 991 198 m 198 0 l 198 198 l 0 198 l 0 1190 l 198 1190 l 198 1389 l 1190 1389 l 1190 1190 l 1389 1190 l 1389 198 l 1190 198 l 1190 0 l 198 0 m 397 1587 l 397 1786 l 595 1786 l 595 1984 l 991 1984 l 991 1786 l 793 1786 l 793 1587 l 397 1587 z "},"Ô":{"ha":1587,"x_min":0,"x_max":1389,"o":"m 991 198 l 991 1190 l 397 1190 l 397 198 l 991 198 m 198 0 l 198 198 l 0 198 l 0 1190 l 198 1190 l 198 1389 l 1190 1389 l 1190 1190 l 1389 1190 l 1389 198 l 1190 198 l 1190 0 l 198 0 m 397 1587 l 397 1786 l 595 1786 l 595 1587 l 397 1587 m 793 1587 l 793 1786 l 991 1786 l 991 1587 l 793 1587 m 595 1786 l 595 1984 l 793 1984 l 793 1786 l 595 1786 z "},"Õ":{"ha":1587,"x_min":0,"x_max":1389,"o":"m 991 198 l 991 1190 l 397 1190 l 397 198 l 991 198 m 198 0 l 198 198 l 0 198 l 0 1190 l 198 1190 l 198 1389 l 1190 1389 l 1190 1190 l 1389 1190 l 1389 198 l 1190 198 l 1190 0 l 198 0 m 198 1587 l 198 1786 l 397 1786 l 397 1587 l 198 1587 m 595 1587 l 595 1786 l 397 1786 l 397 1984 l 793 1984 l 793 1786 l 991 1786 l 991 1587 l 595 1587 m 991 1786 l 991 1984 l 1190 1984 l 1190 1786 l 991 1786 z "},"Ö":{"ha":1587,"x_min":0,"x_max":1389,"o":"m 991 198 l 991 1190 l 397 1190 l 397 198 l 991 198 m 198 0 l 198 198 l 0 198 l 0 1190 l 198 1190 l 198 1389 l 1190 1389 l 1190 1190 l 1389 1190 l 1389 198 l 1190 198 l 1190 0 l 198 0 m 397 1587 l 397 1786 l 595 1786 l 595 1587 l 397 1587 m 793 1587 l 793 1786 l 991 1786 l 991 1587 l 793 1587 z "},"×":{"ha":1587,"x_min":0,"x_max":1389,"o":"m 0 198 l 0 397 l 198 397 l 198 595 l 397 595 l 397 793 l 198 793 l 198 991 l 0 991 l 0 1190 l 397 1190 l 397 991 l 595 991 l 595 793 l 793 793 l 793 991 l 991 991 l 991 1190 l 1389 1190 l 1389 991 l 1190 991 l 1190 793 l 991 793 l 991 595 l 1190 595 l 1190 397 l 1389 397 l 1389 198 l 991 198 l 991 397 l 793 397 l 793 595 l 595 595 l 595 397 l 397 397 l 397 198 l 0 198 z "},"Ø":{"ha":1587,"x_min":0,"x_max":1389,"o":"m 0 0 l 0 198 l 198 198 l 198 0 l 0 0 m 595 595 l 595 793 l 793 793 l 793 595 l 595 595 m 991 198 l 991 793 l 793 793 l 793 1190 l 397 1190 l 397 595 l 595 595 l 595 198 l 991 198 m 397 0 l 397 198 l 198 198 l 198 397 l 0 397 l 0 1190 l 198 1190 l 198 1389 l 991 1389 l 991 1190 l 1190 1190 l 1190 991 l 1389 991 l 1389 198 l 1190 198 l 1190 0 l 397 0 m 1190 1190 l 1190 1389 l 1389 1389 l 1389 1190 l 1190 1190 z "},"Ù":{"ha":1587,"x_min":0,"x_max":1389,"o":"m 198 0 l 198 198 l 0 198 l 0 1389 l 397 1389 l 397 198 l 991 198 l 991 1389 l 1389 1389 l 1389 198 l 1190 198 l 1190 0 l 198 0 m 595 1587 l 595 1786 l 397 1786 l 397 1984 l 793 1984 l 793 1786 l 991 1786 l 991 1587 l 595 1587 z "},"Ú":{"ha":1587,"x_min":0,"x_max":1389,"o":"m 198 0 l 198 198 l 0 198 l 0 1389 l 397 1389 l 397 198 l 991 198 l 991 1389 l 1389 1389 l 1389 198 l 1190 198 l 1190 0 l 198 0 m 397 1587 l 397 1786 l 595 1786 l 595 1984 l 991 1984 l 991 1786 l 793 1786 l 793 1587 l 397 1587 z "},"Û":{"ha":1587,"x_min":0,"x_max":1389,"o":"m 198 0 l 198 198 l 0 198 l 0 1389 l 397 1389 l 397 198 l 991 198 l 991 1389 l 1389 1389 l 1389 198 l 1190 198 l 1190 0 l 198 0 m 397 1587 l 397 1786 l 595 1786 l 595 1587 l 397 1587 m 793 1587 l 793 1786 l 991 1786 l 991 1587 l 793 1587 m 595 1786 l 595 1984 l 793 1984 l 793 1786 l 595 1786 z "},"Ü":{"ha":1587,"x_min":0,"x_max":1389,"o":"m 198 0 l 198 198 l 0 198 l 0 1389 l 397 1389 l 397 198 l 991 198 l 991 1389 l 1389 1389 l 1389 198 l 1190 198 l 1190 0 l 198 0 m 397 1587 l 397 1786 l 595 1786 l 595 1587 l 397 1587 m 793 1587 l 793 1786 l 991 1786 l 991 1587 l 793 1587 z "},"Ý":{"ha":1587,"x_min":198,"x_max":1389,"o":"m 595 0 l 595 595 l 397 595 l 397 793 l 198 793 l 198 1389 l 595 1389 l 595 793 l 991 793 l 991 1389 l 1389 1389 l 1389 793 l 1190 793 l 1190 595 l 991 595 l 991 0 l 595 0 m 595 1587 l 595 1786 l 793 1786 l 793 1984 l 1190 1984 l 1190 1786 l 991 1786 l 991 1587 l 595 1587 z "},"Þ":{"ha":1587,"x_min":0,"x_max":1389,"o":"m 991 595 l 991 991 l 397 991 l 397 595 l 991 595 m 0 0 l 0 1389 l 397 1389 l 397 1190 l 1190 1190 l 1190 991 l 1389 991 l 1389 595 l 1190 595 l 1190 397 l 397 397 l 397 0 l 0 0 z "},"ß":{"ha":1587,"x_min":0,"x_max":1389,"o":"m 595 0 l 595 198 l 991 198 l 991 595 l 1389 595 l 1389 198 l 1190 198 l 1190 0 l 595 0 m 0 0 l 0 1190 l 198 1190 l 198 1389 l 991 1389 l 991 1190 l 1190 1190 l 1190 793 l 991 793 l 991 595 l 595 595 l 595 793 l 793 793 l 793 1190 l 397 1190 l 397 0 l 0 0 z "},"à":{"ha":1587,"x_min":0,"x_max":1389,"o":"m 991 198 l 991 397 l 397 397 l 397 198 l 991 198 m 198 0 l 198 198 l 0 198 l 0 397 l 198 397 l 198 595 l 991 595 l 991 793 l 198 793 l 198 991 l 1190 991 l 1190 793 l 1389 793 l 1389 0 l 198 0 m 595 1190 l 595 1389 l 397 1389 l 397 1587 l 793 1587 l 793 1389 l 991 1389 l 991 1190 l 595 1190 z "},"á":{"ha":1587,"x_min":0,"x_max":1389,"o":"m 991 198 l 991 397 l 397 397 l 397 198 l 991 198 m 198 0 l 198 198 l 0 198 l 0 397 l 198 397 l 198 595 l 991 595 l 991 793 l 198 793 l 198 991 l 1190 991 l 1190 793 l 1389 793 l 1389 0 l 198 0 m 397 1190 l 397 1389 l 595 1389 l 595 1587 l 991 1587 l 991 1389 l 793 1389 l 793 1190 l 397 1190 z "},"â":{"ha":1587,"x_min":0,"x_max":1389,"o":"m 991 198 l 991 397 l 397 397 l 397 198 l 991 198 m 198 0 l 198 198 l 0 198 l 0 397 l 198 397 l 198 595 l 991 595 l 991 793 l 198 793 l 198 991 l 1190 991 l 1190 793 l 1389 793 l 1389 0 l 198 0 m 397 1190 l 397 1389 l 595 1389 l 595 1190 l 397 1190 m 793 1190 l 793 1389 l 991 1389 l 991 1190 l 793 1190 m 595 1389 l 595 1587 l 793 1587 l 793 1389 l 595 1389 z "},"ã":{"ha":1587,"x_min":0,"x_max":1389,"o":"m 991 198 l 991 397 l 397 397 l 397 198 l 991 198 m 198 0 l 198 198 l 0 198 l 0 397 l 198 397 l 198 595 l 991 595 l 991 793 l 198 793 l 198 991 l 1190 991 l 1190 793 l 1389 793 l 1389 0 l 198 0 m 198 1190 l 198 1389 l 397 1389 l 397 1190 l 198 1190 m 595 1190 l 595 1389 l 397 1389 l 397 1587 l 793 1587 l 793 1389 l 991 1389 l 991 1190 l 595 1190 m 991 1389 l 991 1587 l 1190 1587 l 1190 1389 l 991 1389 z "},"ä":{"ha":1587,"x_min":0,"x_max":1389,"o":"m 991 198 l 991 397 l 397 397 l 397 198 l 991 198 m 198 0 l 198 198 l 0 198 l 0 397 l 198 397 l 198 595 l 991 595 l 991 793 l 198 793 l 198 991 l 1190 991 l 1190 793 l 1389 793 l 1389 0 l 198 0 m 397 1190 l 397 1389 l 595 1389 l 595 1190 l 397 1190 m 793 1190 l 793 1389 l 991 1389 l 991 1190 l 793 1190 z "},"å":{"ha":1587,"x_min":0,"x_max":1389,"o":"m 991 198 l 991 397 l 397 397 l 397 198 l 991 198 m 198 0 l 198 198 l 0 198 l 0 397 l 198 397 l 198 595 l 991 595 l 991 793 l 198 793 l 198 991 l 1190 991 l 1190 793 l 1389 793 l 1389 0 l 198 0 m 793 1389 l 793 1587 l 595 1587 l 595 1389 l 793 1389 m 397 1190 l 397 1786 l 991 1786 l 991 1190 l 397 1190 z "},"æ":{"ha":1587,"x_min":0,"x_max":1389,"o":"m 0 198 l 0 397 l 198 397 l 198 198 l 0 198 m 198 0 l 198 198 l 595 198 l 595 397 l 198 397 l 198 595 l 595 595 l 595 793 l 793 793 l 793 595 l 1190 595 l 1190 793 l 1389 793 l 1389 397 l 793 397 l 793 198 l 1389 198 l 1389 0 l 198 0 m 198 793 l 198 991 l 595 991 l 595 793 l 198 793 m 793 793 l 793 991 l 1190 991 l 1190 793 l 793 793 z "},"ç":{"ha":1587,"x_min":0,"x_max":1389,"o":"m 397 -397 l 397 -198 l 595 -198 l 595 0 l 198 0 l 198 198 l 0 198 l 0 793 l 198 793 l 198 991 l 1389 991 l 1389 793 l 397 793 l 397 198 l 1389 198 l 1389 0 l 991 0 l 991 -198 l 793 -198 l 793 -397 l 397 -397 z "},"è":{"ha":1587,"x_min":0,"x_max":1389,"o":"m 991 595 l 991 793 l 397 793 l 397 595 l 991 595 m 198 0 l 198 198 l 0 198 l 0 793 l 198 793 l 198 991 l 1190 991 l 1190 793 l 1389 793 l 1389 397 l 397 397 l 397 198 l 1389 198 l 1389 0 l 198 0 m 595 1190 l 595 1389 l 397 1389 l 397 1587 l 793 1587 l 793 1389 l 991 1389 l 991 1190 l 595 1190 z "},"é":{"ha":1587,"x_min":0,"x_max":1389,"o":"m 991 595 l 991 793 l 397 793 l 397 595 l 991 595 m 198 0 l 198 198 l 0 198 l 0 793 l 198 793 l 198 991 l 1190 991 l 1190 793 l 1389 793 l 1389 397 l 397 397 l 397 198 l 1389 198 l 1389 0 l 198 0 m 397 1190 l 397 1389 l 595 1389 l 595 1587 l 991 1587 l 991 1389 l 793 1389 l 793 1190 l 397 1190 z "},"ê":{"ha":1587,"x_min":0,"x_max":1389,"o":"m 991 595 l 991 793 l 397 793 l 397 595 l 991 595 m 198 0 l 198 198 l 0 198 l 0 793 l 198 793 l 198 991 l 1190 991 l 1190 793 l 1389 793 l 1389 397 l 397 397 l 397 198 l 1389 198 l 1389 0 l 198 0 m 397 1190 l 397 1389 l 595 1389 l 595 1190 l 397 1190 m 793 1190 l 793 1389 l 991 1389 l 991 1190 l 793 1190 m 595 1389 l 595 1587 l 793 1587 l 793 1389 l 595 1389 z "},"ë":{"ha":1587,"x_min":0,"x_max":1389,"o":"m 991 595 l 991 793 l 397 793 l 397 595 l 991 595 m 198 0 l 198 198 l 0 198 l 0 793 l 198 793 l 198 991 l 1190 991 l 1190 793 l 1389 793 l 1389 397 l 397 397 l 397 198 l 1389 198 l 1389 0 l 198 0 m 397 1190 l 397 1389 l 595 1389 l 595 1190 l 397 1190 m 793 1190 l 793 1389 l 991 1389 l 991 1190 l 793 1190 z "},"ì":{"ha":1587,"x_min":198,"x_max":1389,"o":"m 198 0 l 198 198 l 595 198 l 595 793 l 397 793 l 397 991 l 991 991 l 991 198 l 1389 198 l 1389 0 l 198 0 m 595 1190 l 595 1389 l 397 1389 l 397 1587 l 793 1587 l 793 1389 l 991 1389 l 991 1190 l 595 1190 z "},"í":{"ha":1587,"x_min":198,"x_max":1389,"o":"m 198 0 l 198 198 l 595 198 l 595 793 l 397 793 l 397 991 l 991 991 l 991 198 l 1389 198 l 1389 0 l 198 0 m 595 1190 l 595 1389 l 793 1389 l 793 1587 l 1190 1587 l 1190 1389 l 991 1389 l 991 1190 l 595 1190 z "},"î":{"ha":1587,"x_min":198,"x_max":1389,"o":"m 198 0 l 198 198 l 595 198 l 595 793 l 397 793 l 397 991 l 991 991 l 991 198 l 1389 198 l 1389 0 l 198 0 m 397 1190 l 397 1389 l 595 1389 l 595 1190 l 397 1190 m 991 1190 l 991 1389 l 1190 1389 l 1190 1190 l 991 1190 m 595 1389 l 595 1587 l 991 1587 l 991 1389 l 595 1389 z "},"ï":{"ha":1587,"x_min":198,"x_max":1389,"o":"m 198 0 l 198 198 l 595 198 l 595 793 l 397 793 l 397 991 l 991 991 l 991 198 l 1389 198 l 1389 0 l 198 0 m 397 1190 l 397 1389 l 595 1389 l 595 1190 l 397 1190 m 793 1190 l 793 1389 l 991 1389 l 991 1190 l 793 1190 z "},"ð":{"ha":1587,"x_min":0,"x_max":1389,"o":"m 991 198 l 991 793 l 397 793 l 397 198 l 991 198 m 0 1190 l 0 1389 l 198 1389 l 198 1190 l 0 1190 m 198 0 l 198 198 l 0 198 l 0 793 l 198 793 l 198 991 l 595 991 l 595 1190 l 397 1190 l 397 1389 l 198 1389 l 198 1587 l 0 1587 l 0 1786 l 397 1786 l 397 1587 l 595 1587 l 595 1389 l 793 1389 l 793 1190 l 991 1190 l 991 991 l 1190 991 l 1190 793 l 1389 793 l 1389 198 l 1190 198 l 1190 0 l 198 0 m 595 1587 l 595 1786 l 793 1786 l 793 1587 l 595 1587 z "},"ñ":{"ha":1587,"x_min":0,"x_max":1389,"o":"m 0 0 l 0 991 l 1190 991 l 1190 793 l 1389 793 l 1389 0 l 991 0 l 991 793 l 397 793 l 397 0 l 0 0 m 198 1190 l 198 1389 l 397 1389 l 397 1190 l 198 1190 m 595 1190 l 595 1389 l 397 1389 l 397 1587 l 793 1587 l 793 1389 l 991 1389 l 991 1190 l 595 1190 m 991 1389 l 991 1587 l 1190 1587 l 1190 1389 l 991 1389 z "},"ò":{"ha":1587,"x_min":0,"x_max":1389,"o":"m 991 198 l 991 793 l 397 793 l 397 198 l 991 198 m 198 0 l 198 198 l 0 198 l 0 793 l 198 793 l 198 991 l 1190 991 l 1190 793 l 1389 793 l 1389 198 l 1190 198 l 1190 0 l 198 0 m 595 1190 l 595 1389 l 397 1389 l 397 1587 l 793 1587 l 793 1389 l 991 1389 l 991 1190 l 595 1190 z "},"ó":{"ha":1587,"x_min":0,"x_max":1389,"o":"m 991 198 l 991 793 l 397 793 l 397 198 l 991 198 m 198 0 l 198 198 l 0 198 l 0 793 l 198 793 l 198 991 l 1190 991 l 1190 793 l 1389 793 l 1389 198 l 1190 198 l 1190 0 l 198 0 m 397 1190 l 397 1389 l 595 1389 l 595 1587 l 991 1587 l 991 1389 l 793 1389 l 793 1190 l 397 1190 z "},"ô":{"ha":1587,"x_min":0,"x_max":1389,"o":"m 991 198 l 991 793 l 397 793 l 397 198 l 991 198 m 198 0 l 198 198 l 0 198 l 0 793 l 198 793 l 198 991 l 1190 991 l 1190 793 l 1389 793 l 1389 198 l 1190 198 l 1190 0 l 198 0 m 397 1190 l 397 1389 l 595 1389 l 595 1190 l 397 1190 m 793 1190 l 793 1389 l 991 1389 l 991 1190 l 793 1190 m 595 1389 l 595 1587 l 793 1587 l 793 1389 l 595 1389 z "},"õ":{"ha":1587,"x_min":0,"x_max":1389,"o":"m 991 198 l 991 793 l 397 793 l 397 198 l 991 198 m 198 0 l 198 198 l 0 198 l 0 793 l 198 793 l 198 991 l 1190 991 l 1190 793 l 1389 793 l 1389 198 l 1190 198 l 1190 0 l 198 0 m 198 1190 l 198 1389 l 397 1389 l 397 1190 l 198 1190 m 595 1190 l 595 1389 l 397 1389 l 397 1587 l 793 1587 l 793 1389 l 991 1389 l 991 1190 l 595 1190 m 991 1389 l 991 1587 l 1190 1587 l 1190 1389 l 991 1389 z "},"ö":{"ha":1587,"x_min":0,"x_max":1389,"o":"m 991 198 l 991 793 l 397 793 l 397 198 l 991 198 m 198 0 l 198 198 l 0 198 l 0 793 l 198 793 l 198 991 l 1190 991 l 1190 793 l 1389 793 l 1389 198 l 1190 198 l 1190 0 l 198 0 m 397 1190 l 397 1389 l 595 1389 l 595 1190 l 397 1190 m 793 1190 l 793 1389 l 991 1389 l 991 1190 l 793 1190 z "},"÷":{"ha":1587,"x_min":0,"x_max":1389,"o":"m 595 198 l 595 397 l 793 397 l 793 198 l 595 198 m 0 595 l 0 793 l 1389 793 l 1389 595 l 0 595 m 595 991 l 595 1190 l 793 1190 l 793 991 l 595 991 z "},"ø":{"ha":1587,"x_min":0,"x_max":1389,"o":"m 0 0 l 0 198 l 198 198 l 198 0 l 0 0 m 595 397 l 595 595 l 793 595 l 793 397 l 595 397 m 991 198 l 991 595 l 793 595 l 793 793 l 397 793 l 397 397 l 595 397 l 595 198 l 991 198 m 397 0 l 397 198 l 198 198 l 198 397 l 0 397 l 0 793 l 198 793 l 198 991 l 991 991 l 991 793 l 1190 793 l 1190 595 l 1389 595 l 1389 198 l 1190 198 l 1190 0 l 397 0 m 1190 793 l 1190 991 l 1389 991 l 1389 793 l 1190 793 z "},"ù":{"ha":1587,"x_min":0,"x_max":1389,"o":"m 198 0 l 198 198 l 0 198 l 0 991 l 397 991 l 397 198 l 991 198 l 991 991 l 1389 991 l 1389 0 l 198 0 m 595 1190 l 595 1389 l 397 1389 l 397 1587 l 793 1587 l 793 1389 l 991 1389 l 991 1190 l 595 1190 z "},"ú":{"ha":1587,"x_min":0,"x_max":1389,"o":"m 198 0 l 198 198 l 0 198 l 0 991 l 397 991 l 397 198 l 991 198 l 991 991 l 1389 991 l 1389 0 l 198 0 m 397 1190 l 397 1389 l 595 1389 l 595 1587 l 991 1587 l 991 1389 l 793 1389 l 793 1190 l 397 1190 z "},"û":{"ha":1587,"x_min":0,"x_max":1389,"o":"m 198 0 l 198 198 l 0 198 l 0 991 l 397 991 l 397 198 l 991 198 l 991 991 l 1389 991 l 1389 0 l 198 0 m 397 1190 l 397 1389 l 595 1389 l 595 1190 l 397 1190 m 793 1190 l 793 1389 l 991 1389 l 991 1190 l 793 1190 m 595 1389 l 595 1587 l 793 1587 l 793 1389 l 595 1389 z "},"ü":{"ha":1587,"x_min":0,"x_max":1389,"o":"m 198 0 l 198 198 l 0 198 l 0 991 l 397 991 l 397 198 l 991 198 l 991 991 l 1389 991 l 1389 0 l 198 0 m 397 1190 l 397 1389 l 595 1389 l 595 1190 l 397 1190 m 793 1190 l 793 1389 l 991 1389 l 991 1190 l 793 1190 z "},"ý":{"ha":1587,"x_min":0,"x_max":1389,"o":"m 0 0 l 0 198 l 991 198 l 991 397 l 198 397 l 198 595 l 0 595 l 0 991 l 397 991 l 397 595 l 991 595 l 991 991 l 1389 991 l 1389 198 l 1190 198 l 1190 0 l 0 0 m 397 1190 l 397 1389 l 595 1389 l 595 1587 l 991 1587 l 991 1389 l 793 1389 l 793 1190 l 397 1190 z "},"þ":{"ha":1587,"x_min":0,"x_max":1389,"o":"m 991 397 l 991 595 l 397 595 l 397 397 l 991 397 m 0 0 l 0 991 l 397 991 l 397 793 l 1190 793 l 1190 595 l 1389 595 l 1389 397 l 1190 397 l 1190 198 l 397 198 l 397 0 l 0 0 z "},"ÿ":{"ha":1587,"x_min":0,"x_max":1389,"o":"m 0 0 l 0 198 l 991 198 l 991 397 l 198 397 l 198 595 l 0 595 l 0 991 l 397 991 l 397 595 l 991 595 l 991 991 l 1389 991 l 1389 198 l 1190 198 l 1190 0 l 0 0 m 397 1190 l 397 1389 l 595 1389 l 595 1190 l 397 1190 m 793 1190 l 793 1389 l 991 1389 l 991 1190 l 793 1190 z "},"Ÿ":{"ha":1587,"x_min":198,"x_max":1389,"o":"m 595 0 l 595 595 l 397 595 l 397 793 l 198 793 l 198 1389 l 595 1389 l 595 793 l 991 793 l 991 1389 l 1389 1389 l 1389 793 l 1190 793 l 1190 595 l 991 595 l 991 0 l 595 0 m 397 1587 l 397 1786 l 595 1786 l 595 1587 l 397 1587 m 991 1587 l 991 1786 l 1190 1786 l 1190 1587 l 991 1587 z "},"ẞ":{"ha":1587,"x_min":0,"x_max":1389,"o":"m 0 0 l 0 397 l 397 397 l 397 198 l 991 198 l 991 595 l 0 595 l 0 1389 l 1389 1389 l 1389 991 l 991 991 l 991 1190 l 397 1190 l 397 793 l 1389 793 l 1389 0 l 0 0 z "},"—":{"ha":1587,"x_min":-198,"x_max":1587,"o":"m -198 595 l -198 793 l 1587 793 l 1587 595 l -198 595 z "},"‘":{"ha":1587,"x_min":595,"x_max":991,"o":"m 595 595 l 595 1190 l 793 1190 l 793 991 l 991 991 l 991 595 l 595 595 m 793 1190 l 793 1389 l 991 1389 l 991 1190 l 793 1190 z "},"’":{"ha":1587,"x_min":595,"x_max":991,"o":"m 595 595 l 595 793 l 793 793 l 793 595 l 595 595 m 793 793 l 793 991 l 595 991 l 595 1389 l 991 1389 l 991 793 l 793 793 z "},"‚":{"ha":1587,"x_min":397,"x_max":793,"o":"m 397 0 l 397 198 l 595 198 l 595 0 l 397 0 m 595 198 l 595 397 l 397 397 l 397 793 l 793 793 l 793 198 l 595 198 z "},"‛":{"ha":1587,"x_min":397,"x_max":793,"o":"m 595 595 l 595 793 l 793 793 l 793 595 l 595 595 m 397 793 l 397 1389 l 793 1389 l 793 991 l 595 991 l 595 793 l 397 793 z "},"“":{"ha":1587,"x_min":198,"x_max":1190,"o":"m 198 595 l 198 1190 l 397 1190 l 397 991 l 595 991 l 595 595 l 198 595 m 793 595 l 793 1190 l 991 1190 l 991 991 l 1190 991 l 1190 595 l 793 595 m 397 1190 l 397 1389 l 595 1389 l 595 1190 l 397 1190 m 991 1190 l 991 1389 l 1190 1389 l 1190 1190 l 991 1190 z "},"”":{"ha":1587,"x_min":198,"x_max":1190,"o":"m 198 595 l 198 793 l 397 793 l 397 595 l 198 595 m 793 595 l 793 793 l 991 793 l 991 595 l 793 595 m 397 793 l 397 991 l 198 991 l 198 1389 l 595 1389 l 595 793 l 397 793 m 991 793 l 991 991 l 793 991 l 793 1389 l 1190 1389 l 1190 793 l 991 793 z "},"„":{"ha":1587,"x_min":198,"x_max":1190,"o":"m 198 0 l 198 198 l 397 198 l 397 0 l 198 0 m 793 0 l 793 198 l 991 198 l 991 0 l 793 0 m 397 198 l 397 397 l 198 397 l 198 793 l 595 793 l 595 198 l 397 198 m 991 198 l 991 397 l 793 397 l 793 793 l 1190 793 l 1190 198 l 991 198 z "},"†":{"ha":1587,"x_min":198,"x_max":1389,"o":"m 595 0 l 595 793 l 198 793 l 198 991 l 595 991 l 595 1389 l 991 1389 l 991 991 l 1389 991 l 1389 793 l 991 793 l 991 0 l 595 0 z "},"•":{"ha":1587,"x_min":397,"x_max":991,"o":"m 397 397 l 397 991 l 991 991 l 991 397 l 397 397 z "},"…":{"ha":1587,"x_min":198,"x_max":1190,"o":"m 198 0 l 198 198 l 397 198 l 397 0 l 198 0 m 595 0 l 595 198 l 793 198 l 793 0 l 595 0 m 991 0 l 991 198 l 1190 198 l 1190 0 l 991 0 z "},"‹":{"ha":1587,"x_min":198,"x_max":991,"o":"m 793 0 l 793 198 l 991 198 l 991 0 l 793 0 m 595 198 l 595 397 l 793 397 l 793 198 l 595 198 m 397 397 l 397 595 l 595 595 l 595 397 l 397 397 m 198 595 l 198 793 l 397 793 l 397 595 l 198 595 m 397 793 l 397 991 l 595 991 l 595 793 l 397 793 m 595 991 l 595 1190 l 793 1190 l 793 991 l 595 991 m 793 1190 l 793 1389 l 991 1389 l 991 1190 l 793 1190 z "},"›":{"ha":1587,"x_min":198,"x_max":991,"o":"m 198 0 l 198 198 l 397 198 l 397 0 l 198 0 m 397 198 l 397 397 l 595 397 l 595 198 l 397 198 m 595 397 l 595 595 l 793 595 l 793 397 l 595 397 m 793 595 l 793 793 l 991 793 l 991 595 l 793 595 m 595 793 l 595 991 l 793 991 l 793 793 l 595 793 m 397 991 l 397 1190 l 595 1190 l 595 991 l 397 991 m 198 1190 l 198 1389 l 397 1389 l 397 1190 l 198 1190 z "},"€":{"ha":1587,"x_min":0,"x_max":1389,"o":"m 397 0 l 397 198 l 198 198 l 198 397 l 0 397 l 0 595 l 198 595 l 198 793 l 0 793 l 0 991 l 198 991 l 198 1190 l 397 1190 l 397 1389 l 1190 1389 l 1190 1190 l 1389 1190 l 1389 991 l 991 991 l 991 1190 l 595 1190 l 595 991 l 793 991 l 793 793 l 595 793 l 595 595 l 793 595 l 793 397 l 595 397 l 595 198 l 991 198 l 991 397 l 1389 397 l 1389 198 l 1190 198 l 1190 0 l 397 0 z "},"™":{"ha":1587,"x_min":0,"x_max":1389,"o":"m 198 595 l 198 1190 l 0 1190 l 0 1389 l 595 1389 l 595 1190 l 397 1190 l 397 595 l 198 595 m 793 595 l 793 1389 l 991 1389 l 991 1190 l 1190 1190 l 1190 1389 l 1389 1389 l 1389 595 l 1190 595 l 1190 991 l 991 991 l 991 595 l 793 595 z "}}}
